# xmcd
#
# Track frame offsets: 
#        150
#        8851
#        25930
#        44169
#        67103
#        86272
#        102406
#        125819
#        147274
#        175777
#        196376
#        200983
#        221453
#        252296
#        270416
#        287416
#        304720
#
# Disc length: 4318 seconds
#
# Revision: 1
# Processed by: cddbd v1.5.2PL0 Copyright (c) Steve Scherf et al.
# Submitted via: ExactAudioCopy v1.0b3
#
DISCID=0110dc11
DTITLE=Joe Budden - No Love Lost
DYEAR=2013
DGENRE=Rap
TTITLE0=Our First Again (Intro)
TTITLE1=Top of the World (feat. Kirko Bangz)
TTITLE2=She Don't Put It Down (feat. Lil Wayne and Tank)
TTITLE3=NBA (feat. Wiz Khalifa and French Montana)
TTITLE4=You and I (feat. Emanny)
TTITLE5=Castles
TTITLE6=All in My Head (feat. Royce da 5'9'' and Kobe)
TTITLE7=Skeletons (feat. Joell Ortiz and Crooked I)
TTITLE8=Ghetto Burbs (feat. Emmany)
TTITLE9=Last Day (feat. Juicy J and Lloyd Banks)
TTITLE10=Role Play (Interlude)
TTITLE11=Switch Positions (feat. Omarion)
TTITLE12=Tell Him Somethin' (feat. SLV)
TTITLE13=Runaway
TTITLE14=My Time
TTITLE15=No Love Lost (Outro)
TTITLE16=She Don't Put It Down (Remix) (feat. Fabolous and Twista)
EXTD=
EXTT0=
EXTT1=
EXTT2=
EXTT3=
EXTT4=
EXTT5=
EXTT6=
EXTT7=
EXTT8=
EXTT9=
EXTT10=
EXTT11=
EXTT12=
EXTT13=
EXTT14=
EXTT15=
EXTT16=
PLAYORDER=
